<svg width="24" height="24" viewBox="0 0 28 29" fill="#E7BB4C" xmlns="http://www.w3.org/2000/svg">
    <path
        fill="url(#paint0_linear_494_1222)"
        d="M76.428 11.4229H81.485V38.0703H75.7869V20.2639L67.222 31.1703L58.666 20.3351V38.0703H52.9501V11.4229H58.0962L67.222 22.9971L76.428 11.4229ZM87.3611 39.6017V42.8603C87.3495 43.5248 87.0786 44.1584 86.6061 44.6259C86.1337 45.0933 85.4972 45.3576 84.8326 45.3621H49.9675C49.2945 45.3621 48.6491 45.0948 48.1733 44.6189C47.6974 44.143 47.4301 43.4976 47.4301 42.8247V7.96847C47.4371 7.30014 47.7076 6.66158 48.1827 6.19148C48.6578 5.72139 49.2991 5.45772 49.9675 5.45776H84.8237C85.4914 5.46003 86.1314 5.72444 86.606 6.19404C87.0806 6.66365 87.3518 7.30087 87.3611 7.96847V8.97454H92.8099V5.41324C92.8076 3.97676 92.2353 2.59992 91.2187 1.58501C90.2021 0.570094 88.8243 6.38561e-05 87.3878 6.57927e-05H47.4034C46.6891 -0.00345288 45.9812 0.134198 45.3202 0.405107C44.6593 0.676016 44.0584 1.07484 43.5521 1.57868C43.0458 2.08252 42.644 2.68143 42.3699 3.34102C42.0957 4.0006 41.9546 4.70785 41.9546 5.42214V45.4333C41.9569 46.8683 42.528 48.2438 43.5427 49.2584C44.5573 50.2731 45.9328 50.8441 47.3678 50.8465H87.37C88.8065 50.8465 90.1843 50.2765 91.2009 49.2616C92.2175 48.2466 92.7898 46.8698 92.7921 45.4333V39.6017H87.3611ZM88.3049 11.4229L88.1535 11.7345C88.0012 12.027 87.8127 12.2992 87.5926 12.5447C87.2944 12.8953 86.97 13.2227 86.6222 13.5241C86.1414 13.8985 85.6072 14.1986 85.0374 14.4144C84.3186 14.7174 83.56 14.9152 82.7849 15.002V18.6524H87.3611V36.7705H92.8099V11.4229H88.3049Z"
    />
    <defs>
        <linearGradient id="paint0_linear_494_1222" x1="37.5208" y1="-3.17839" x2="100.983"
            y2="57.5684" gradientUnits="userSpaceOnUse">
            <stop stop-color="#F1C957" />
            <stop offset="0.08" stop-color="#EFC655" />
            <stop offset="0.13" stop-color="#E9BD4E" />
            <stop offset="0.14" stop-color="#E7BB4C" />
            <stop offset="0.21" stop-color="#FCF4BD" />
            <stop offset="0.26" stop-color="#E7BB4C" />
            <stop offset="1" stop-color="#E7BB4C" />
        </linearGradient>
    </defs>
</svg>