
<svg viewBox="0 0 2907 658" version="1.1" xmlns="http://www.w3.org/2000/svg" xmlns:xlink="http://www.w3.org/1999/xlink">
    <g id="PC-version" stroke="none" stroke-width="1" fill="none" fill-rule="evenodd">
        <g id="404" transform="translate(745.000000, -5.000000)">
            <g id="404-page" transform="translate(-745.000000, 5.000000)">
                <polygon id="Path" fill="#E7BB4C" fill-rule="nonzero" points="1129 158.76087 1111.17719 158.76087 1111.17719 176.5 1095.73913 176.5 1095.73913 158.76087 1078 158.76087 1078 143.23913 1095.73913 143.23913 1095.73913 125.5 1111.17719 125.5 1111.17719 143.23913 1128.91632 143.23913"></polygon>
                <polygon id="Path" fill="#E7BB4C" fill-rule="nonzero" points="1435 167.76087 1417.25359 167.76087 1417.25359 185.5 1401.72548 185.5 1401.72548 167.76087 1384 167.76087 1384 152.23913 1401.72548 152.23913 1401.72548 134.5 1417.25359 134.5 1417.25359 152.23913 1435 152.23913"></polygon>
                <polygon id="Path" fill="#E7BB4C" fill-rule="nonzero" points="1753.91629 87.7608696 1736.19081 87.7608696 1736.19081 105.5 1720.74641 105.5 1720.74641 87.7608696 1703 87.7608696 1703 72.2391304 1720.74641 72.2391304 1720.74641 54.5 1736.27452 54.5 1736.27452 72.2391304 1754 72.2391304"></polygon>
                <polygon id="Path" fill="#E7BB4C" fill-rule="nonzero" points="1129 450.739014 1111.17719 450.739014 1111.17719 468.5 1095.73913 468.5 1095.73913 450.739014 1078 450.739014 1078 435.198152 1095.73913 435.198152 1095.73913 417.5 1111.17719 417.5 1111.17719 435.260986 1128.91632 435.260986"></polygon>
                <path d="M1804.01416,419.342513 C1804.01416,415.43395 1801.42352,412.870268 1795.6689,412.870268 C1789.48958,412.870268 1785.7735,417.073025 1783.52261,422.242415 L1768,413.43764 C1772.82953,402.265646 1784.07461,395.155362 1796.34841,395.512884 C1809.08926,395.512884 1822,403.308998 1822,417.787493 C1822,434.367367 1804.01416,439.49473 1804.01416,447.206788 L1786.00708,447.206788 C1786.00708,434.157229 1804.01416,429.134936 1804.01416,419.342513 Z M1784.3083,465.993109 C1784.3083,460.190313 1789.06186,455.486218 1794.92568,455.486218 C1800.7895,455.486218 1805.54306,460.190313 1805.54306,465.993109 C1805.54306,471.795905 1800.7895,476.5 1794.92568,476.5 C1789.0953,476.420874 1784.38825,471.762812 1784.3083,465.993109 Z" id="Shape" fill="#E7BB4C" fill-rule="nonzero"></path>
                <path d="M1207.01416,51.3363293 C1207.01416,47.4497879 1204.42352,44.8867715 1198.6689,44.8867715 C1192.48958,44.8867715 1188.7735,49.0884378 1186.52261,54.2354791 L1171,45.4329881 C1175.82953,34.2638915 1187.07461,27.1554513 1199.34841,27.5128811 C1212.08926,27.5128811 1225,35.3069722 1225,49.7817128 C1225,66.3782948 1207.01416,71.4833195 1207.01416,79.1933772 L1189.00708,79.1933772 C1189.00708,66.1472032 1207.01416,61.1262119 1207.01416,51.3363293 Z M1187.3083,97.9958341 C1187.3083,92.1945435 1192.06186,87.4916683 1197.92568,87.4916683 C1203.7895,87.4916683 1208.54306,92.1945435 1208.54306,97.9958341 C1208.54306,103.797125 1203.7895,108.5 1197.92568,108.5 C1192.0953,108.420895 1187.38825,103.764041 1187.3083,97.9958341 L1187.3083,97.9958341 Z" id="Shape" fill="#E7BB4C" fill-rule="nonzero"></path>
                <path d="M1840,24.3357111 C1840,20.4491277 1837.41038,17.8860835 1831.67925,17.8860835 C1825.50236,17.8860835 1821.78774,22.0877953 1819.53774,27.2348923 L1804,18.4533146 C1808.83807,7.28048883 1820.08169,0.167092945 1832.35849,0.51200531 C1845.09434,0.51200531 1858,8.30618067 1858,22.7810778 C1858,39.3778393 1840,44.5039277 1840,52.1930603 L1822,52.1930603 C1822.08491,39.1467452 1840,34.1467082 1840,24.3357111 Z M1820.32311,70.9957205 C1820.32311,65.1943672 1825.07481,60.4914411 1830.93632,60.4914411 C1836.79783,60.4914411 1841.54953,65.1943672 1841.54953,70.9957205 C1841.54953,76.7970739 1836.79783,81.5 1830.93632,81.5 C1825.14142,81.3760621 1820.48669,76.7319587 1820.40802,70.9957205 L1820.32311,70.9957205 Z" id="Shape" fill="#E7BB4C" fill-rule="nonzero"></path>
                <path d="M1857.05032,162.437087 L1855.48864,171.47861 L1867.34903,171.47861 L1865.44968,183.765807 L1853.48377,183.765807 L1850.67695,200.5 L1838.01461,200.5 L1840.80032,183.765807 L1830.52273,183.765807 L1827.71591,200.5 L1815.05357,200.5 L1817.86039,183.765807 L1806,183.765807 L1808.11039,171.47861 L1819.97078,171.47861 L1821.53247,162.542466 L1809.56656,162.542466 L1811.67695,150.255269 L1823.64286,150.255269 L1826.42857,133.5 L1839.09091,133.5 L1836.30519,150.255269 L1846.58279,150.255269 L1849.38961,133.5 L1862.05195,133.5 L1859.26623,150.255269 L1871,150.255269 L1868.99513,162.542466 L1857.05032,162.437087 Z M1844.38799,162.437087 L1834.08929,162.437087 L1832.5276,171.373231 L1842.8263,171.373231 L1844.38799,162.437087 Z" id="Shape" fill="#E7BB4C" fill-rule="nonzero"></path>
                <path d="M1533.54167,116.437087 L1532.04167,125.47861 L1543.75,125.47861 L1541.875,137.765807 L1529.95833,137.765807 L1527.1875,154.5 L1514.6875,154.5 L1517.45833,137.765807 L1507.29167,137.765807 L1504.54167,154.5 L1491.9375,154.5 L1494.70833,137.765807 L1483,137.765807 L1485.08333,125.47861 L1496.625,125.47861 L1498.1875,116.542466 L1486.35417,116.542466 L1488.4375,104.255269 L1500.25,104.255269 L1503,87.5 L1515.5,87.5 L1512.75,104.255269 L1522.91667,104.255269 L1525.66667,87.5 L1538.16667,87.5 L1535.41667,104.255269 L1547,104.255269 L1545.02083,116.542466 L1533.54167,116.437087 Z M1521.04167,116.437087 L1510.89583,116.437087 L1509.33333,125.373231 L1519.5,125.373231 L1521.04167,116.437087 Z" id="Shape" fill="#E7BB4C" fill-rule="nonzero"></path>
                <path d="M1083.30244,548.533333 L1081.73821,557.466667 L1093.61789,557.466667 L1091.71545,569.75 L1079.73008,569.75 L1076.9187,586.5 L1064.23577,586.5 L1067.02602,569.75 L1056.64715,569.75 L1053.83577,586.5 L1041.15285,586.5 L1043.96423,569.75 L1032,569.75 L1034.00813,557.466667 L1045.8878,557.466667 L1047.45203,548.533333 L1035.46667,548.533333 L1037.58049,536.25 L1049.56585,536.25 L1052.3561,519.5 L1065.03902,519.5 L1062.24878,536.25 L1072.54309,536.25 L1075.35447,519.5 L1088.0374,519.5 L1085.24715,536.25 L1097,536.25 L1094.88618,548.533333 L1083.30244,548.533333 Z M1070.61951,548.533333 L1060.24065,548.533333 L1058.65528,557.466667 L1068.97073,557.466667 L1070.61951,548.533333 Z" id="Shape" fill="#E7BB4C" fill-rule="nonzero"></path>
                <path d="M1881.32358,548.533333 L1879.73821,557.466667 L1891.61789,557.466667 L1889.71545,569.75 L1877.73008,569.75 L1874.93984,586.5 L1862.15122,586.5 L1864.9626,569.75 L1854.64715,569.75 L1851.85691,586.5 L1839.17398,586.5 L1841.96423,569.75 L1830,569.75 L1832.11382,557.466667 L1843.9935,557.466667 L1845.55772,548.533333 L1833.57236,548.533333 L1835.58049,536.25 L1847.56585,536.25 L1850.37724,519.5 L1863.06016,519.5 L1860.24878,536.25 L1870.56423,536.25 L1873.35447,519.5 L1886.0374,519.5 L1883.24715,536.25 L1895,536.25 L1892.99187,548.533333 L1881.32358,548.533333 Z M1868.53496,548.533333 L1858.3252,548.533333 L1856.76098,557.466667 L1867.05528,557.466667 L1868.53496,548.533333 Z" id="Shape" fill="#E7BB4C" fill-rule="nonzero"></path>
                <g id="Group" transform="translate(0.000000, 150.500000)">
                    <path d="M1661.27952,326.83691 C1660.01694,328.709358 1656.37651,328.456893 1654.54577,328.120273 C1652.30014,327.522267 1650.22968,326.397086 1648.50643,324.838229 C1642.88035,320.653328 1637.49201,316.158087 1632.36648,311.373432 C1629.84132,308.932937 1626.66383,306.976334 1624.66475,304.136103 C1624.3337,302.881317 1624.22685,301.577948 1624.3491,300.286013 C1624.3491,299.044727 1625.78002,299.149921 1626.81113,299.213037 C1632.5769,299.549657 1637.69035,302.873779 1642.40397,305.924397 C1644.19263,307.102566 1645.72876,308.575279 1647.53846,309.774487 C1650.34878,311.527803 1653.02826,313.482517 1655.55583,315.623258 C1657.53334,317.457866 1659.21556,319.586837 1660.54301,321.934882 C1661.37815,323.10609 1661.81351,324.515208 1661.78455,325.953282 C1661.63725,326.794832 1661.09013,327.320801 1661.27952,326.83691 Z" id="Path" fill="#EBA76C" fill-rule="nonzero"></path>
                    <path d="M1625.99045,306.450365 C1624.83582,305.27667 1624.12856,303.735893 1623.99137,302.095345 C1622.99086,296.947756 1622.33009,291.739945 1622.01333,286.505635 C1621.61352,282.297886 1622.18168,277.837672 1621.38204,273.524729 C1620.58241,269.211786 1618.73063,265.572083 1618.35186,261.42745 C1617.97572,258.616547 1618.32338,255.756173 1619.36192,253.117146 C1619.59951,252.659152 1620.04604,252.346215 1620.55769,252.279126 C1621.06934,252.212038 1621.58148,252.399273 1621.92916,252.780526 C1622.27035,253.131055 1622.56076,253.52763 1622.79192,253.958696 C1623.17098,255.131384 1623.4456,256.335278 1623.6126,257.556321 C1624.24389,259.660196 1625.23291,261.76407 1625.7169,263.867945 C1625.98032,262.516219 1626.02296,261.13075 1625.84315,259.765389 C1625.83268,259.565625 1625.97151,259.388874 1626.1681,259.351688 C1626.36469,259.314503 1626.55851,259.428333 1626.62174,259.618118 C1627.24687,261.591427 1627.71824,263.610167 1628.03162,265.656238 C1628.28414,267.760113 1627.16886,270.389956 1627.35825,272.472792 C1627.69494,276.112494 1629.18899,278.784415 1630.09383,282.339963 C1631.60893,288.230812 1634.30243,294.542435 1633.73427,300.748865 C1633.56592,302.305732 1633.96574,304.956614 1632.64003,306.071668 C1630.58104,307.147805 1628.15836,307.285777 1625.99045,306.450365 L1625.99045,306.450365 Z" id="Path" fill="#EBA76C" fill-rule="nonzero"></path>
                    <path d="M1668.05536,317.790249 C1666.81382,316.717273 1664.68848,316.780389 1663.06817,316.254421 C1660.86454,315.555004 1658.74686,314.609294 1656.75528,313.435229 C1655.72417,312.804066 1654.7562,312.109788 1653.70405,311.583819 C1652.58256,311.156189 1651.49263,310.650004 1650.44239,310.06903 C1649.55858,309.458906 1648.94834,308.533201 1647.93827,309.22748 C1646.92821,309.921758 1646.36005,310.826424 1645.49729,311.541742 C1643.88004,312.759239 1642.5509,314.317976 1641.60434,316.107149 C1640.99409,317.411552 1640.86784,318.800109 1640.38385,320.104511 C1641.54121,320.819828 1642.48814,321.850727 1643.64551,322.566044 C1645.21298,323.414524 1646.69312,324.415181 1648.06453,325.553546 C1649.10261,326.5398 1650.03366,327.632859 1650.8422,328.814552 C1651.95071,330.572905 1652.31411,332.699894 1651.85227,334.726439 C1651.62079,338.450297 1650.56865,342.195194 1650.56865,345.94009 C1651.19994,345.519315 1651.74705,344.846076 1652.39938,344.404262 C1653.52418,343.857124 1654.60114,343.216708 1655.61896,342.489736 C1657.47074,340.74352 1657.597,337.608747 1658.14412,335.294485 C1658.84511,331.260244 1660.61856,327.488789 1663.2786,324.375376 C1664.50016,323.108196 1665.56034,321.694895 1666.43505,320.167627 C1666.89173,319.282466 1667.41216,318.431662 1667.99223,317.621939 C1667.86597,317.979598 1667.69763,318.337256 1668.05536,317.790249 Z" id="Path" fill="#f0ee8c" fill-rule="nonzero"></path>
                    <path d="M1211.42286,248.699009 C1211.42286,248.194079 1211.57016,247.689149 1211.65433,247.205258 C1212.10662,243.105878 1212.98825,239.065319 1214.28471,235.150057 C1214.97912,233.42488 1215.84189,231.762819 1216.389,229.995565 C1217.01995,228.226768 1217.01995,226.294287 1216.389,224.525491 C1215.17795,226.155168 1214.40296,228.066909 1214.1374,230.07972 C1214.09134,225.704869 1214.3515,221.332158 1214.91599,216.99362 C1214.55158,216.830309 1214.12816,216.870246 1213.80072,217.098814 C1212.04675,217.963592 1210.4696,219.148007 1209.15022,220.591245 C1208.49581,221.26194 1207.98086,222.055668 1207.63513,222.926546 C1207.34052,223.893185 1207.23339,224.907203 1207.31948,225.914048 C1207.48783,228.712201 1208.70832,231.91009 1207.78243,234.560972 C1207.46171,236.014662 1206.97451,237.426558 1206.33046,238.768721 C1204.66807,241.966611 1203.04776,245.185539 1201.42745,248.383428 C1199.59671,252.002092 1195.32499,260.522784 1197.21885,264.814688 C1197.8799,267.037981 1200.11584,268.401086 1202.39543,267.9705 C1204.98371,267.612841 1206.30942,265.319618 1207.46678,262.984317 C1209.40733,258.416947 1210.73748,253.613838 1211.42286,248.699009 L1211.42286,248.699009 Z" id="Path" fill="#EBA76C" fill-rule="nonzero"></path>
                    <path d="M1199.76505,309.290596 C1200.38372,308.097247 1200.83007,306.822237 1201.09076,305.503622 C1204.24721,292.880375 1206.68819,279.773236 1205.9096,266.539865 C1205.90518,265.093831 1205.61185,263.663252 1205.04684,262.332116 C1204.4017,260.915931 1203.1198,259.892184 1201.59579,259.576041 C1200.09385,259.390005 1198.60115,259.985377 1197.63971,261.153946 C1196.76529,262.2607 1196.12782,263.535392 1195.76689,264.898843 C1191.80555,276.3305 1189.675,288.315969 1189.454,300.412245 C1189.16547,303.340005 1189.80598,306.284291 1191.28474,308.827744 C1192.35037,310.43788 1194.01852,311.552283 1195.91419,311.920439 C1197.59201,311.842607 1199.08228,310.824867 1199.76505,309.290596 Z" id="Path" fill="#EBA76C" fill-rule="nonzero"></path>
                    <path d="M1202.29021,307.54438 C1203.04349,306.030346 1203.64271,304.444476 1204.07886,302.810662 C1204.45764,301.548338 1204.85745,300.264974 1205.23623,298.981611 C1205.615,297.698247 1205.93065,296.667349 1206.18316,295.489179 C1206.43568,294.311009 1206.56193,293.153878 1206.70924,291.975708 C1206.94071,289.871834 1207.19322,287.936269 1207.4247,285.91655 C1200.48692,283.311106 1192.88315,283.067065 1185.79252,285.222271 C1185.57156,288.437409 1185.57156,291.663918 1185.79252,294.879055 C1185.95857,298.03528 1186.67054,301.138846 1187.89682,304.051948 C1189.32374,307.023557 1191.59201,309.510837 1194.42014,311.205122 C1197.45033,312.888221 1200.90138,310.06903 1202.29021,307.54438 Z" id="Path" fill="#E7BB4C" fill-rule="nonzero"></path>
                    <path d="M714.324731,483.975299 C758.872703,479.199504 920.945674,504.235611 967.766287,503.162635 C1080.83018,500.616946 1177.50159,470.363231 1177.50159,470.363231" id="Path" stroke="#E7BB4C" stroke-width="6.84"></path>
                    <path d="M1069.92992,146.198242 C971.364635,146.198242 904.048168,83.7131679 808.997063,76.4968782 C713.945958,69.2805886 568.581106,179.860234 438.745968,196.691231 C308.910831,213.522227 126.257833,85.9643137 0,85.9643137" id="Path" stroke="#E7BB4C" stroke-width="13.68"></path>
                    <path d="M1267.52342,149.964177 L1274.29926,24.8257196 L1217.06238,24.8257196 C1182.78338,24.8257196 1167.31679,87.0372897 1133.20613,105.214766 C1104.84021,120.341624 1080.0095,120.657205 1065.57402,120.657205 C1051.13854,120.657205 1050.04431,147.102908 1050.04431,147.102908 C1050.04431,147.102908 1051.09646,173.590688 1065.51089,173.590688 C1079.92533,173.590688 1104.77708,173.906269 1133.143,189.033127 C1167.25366,207.210603 1182.72025,269.401135 1216.99925,269.401135 L1274.23613,269.401135 L1266.97631,149.964177 L1267.52342,149.964177 Z" id="Path" fill="#E7BB4C" fill-rule="nonzero"></path>
                    <path d="M1341.02653,147.102908 C1341.02653,104.246983 1334.94511,65.7040018 1325.2443,38.837524 L1325.2443,0.168309963 L1292.33309,0.168309963 C1265.44017,0.168309963 1243.66069,65.9564668 1243.66069,147.102908 C1243.66069,228.249349 1265.44017,294.121661 1292.33309,294.121661 L1325.2443,294.121661 L1325.2443,255.368292 C1334.94511,228.522852 1341.02653,189.958832 1341.02653,147.102908 Z" id="Path" fill="#f0ee8c" fill-rule="nonzero"></path>
                    <ellipse id="Oval" fill="#e1e29a" fill-rule="nonzero" cx="1322.9927" cy="147.102908" rx="48.6934375" ry="146.934598"></ellipse>
                    <path d="M1329.30559,92.5704797 C1329.30559,103.089852 1326.48583,111.610544 1322.9927,111.610544 C1319.49957,111.610544 1316.67981,103.089852 1316.67981,92.5704797 C1316.67981,82.051107 1319.49957,73.6356089 1322.9927,73.6356089 C1326.48583,73.6356089 1329.30559,82.051107 1329.30559,92.5704797 Z" id="Path" fill="#E7BB4C" fill-rule="nonzero"></path>
                    <rect id="Rectangle" fill="#E7BB4C" fill-rule="nonzero" x="1322.9927" y="73.5093764" width="104.141669" height="38.1011679"></rect>
                    <ellipse id="Oval" fill="#E7BB4C" fill-rule="nonzero" cx="1430.26977" cy="92.5704797" rx="19.0438898" ry="19.0400646"></ellipse>
                    <path d="M1329.30559,201.551181 C1329.30559,212.070554 1326.48583,220.612284 1322.9927,220.612284 C1319.49957,220.612284 1316.67981,212.091592 1316.67981,201.551181 C1316.67981,191.010769 1319.49957,182.511116 1322.9927,182.511116 C1326.48583,182.511116 1329.30559,191.031808 1329.30559,201.551181 Z" id="Path" fill="#E7BB4C" fill-rule="nonzero"></path>
                    <rect id="Rectangle" fill="#E7BB4C" fill-rule="nonzero" x="1322.9927" y="182.595271" width="104.141669" height="38.1011679"></rect>
                    <ellipse id="Oval" fill="#E7BB4C" fill-rule="nonzero" cx="1430.26977" cy="201.635336" rx="19.0438898" ry="19.0400646"></ellipse>
                    <path d="M1740.00128,483.975299 C1784.54925,479.199504 1904.38898,503.099518 1951.23063,503.163084 C2054.34119,503.330945 2212.64747,456.12 2212.64747,456.12" id="Path" stroke="#E7BB4C" stroke-width="6.84"></path>
                    <path d="M1832.27471,146.198242 C1930.83999,146.198242 2025.40711,208.851625 2120.37404,201.635336 C2215.34097,194.419046 2383.64267,109.548747 2513.4778,126.379744 C2643.31294,143.21074 2756.92395,198.227059 2902.20463,85.9643137" id="Path" stroke="#E7BB4C" stroke-width="13.68"></path>
                    <path d="M1836.63061,120.636166 C1822.19513,120.636166 1797.38546,120.320585 1768.99849,105.193727 C1734.88784,87.0162509 1719.42125,24.8257196 1685.16329,24.8257196 L1627.90537,24.8257196 L1635.60709,143.968135 L1634.70225,143.968135 L1627.90537,269.443212 L1685.16329,269.443212 C1719.42125,269.443212 1734.88784,207.252681 1768.99849,189.075205 C1797.38546,173.948347 1822.19513,173.632766 1836.63061,173.632766 C1851.06608,173.632766 1852.09719,147.144985 1852.09719,147.144985 C1852.09719,147.144985 1851.04504,120.636166 1836.63061,120.636166 Z" id="Path" fill="#E7BB4C" fill-rule="nonzero"></path>
                    <path d="M1561.1781,147.102908 C1561.1781,104.246983 1567.25952,65.7040018 1576.96033,38.837524 L1576.96033,0.168309963 L1609.78737,0.168309963 C1636.68028,0.168309963 1658.4808,65.9564668 1658.4808,147.102908 C1658.4808,228.249349 1636.76446,294.121661 1609.78737,294.121661 L1576.96033,294.121661 L1576.96033,255.368292 C1567.25952,228.522852 1561.1781,189.958832 1561.1781,147.102908 Z" id="Path" fill="#f0ee8c" fill-rule="nonzero"></path>
                    <ellipse id="Oval" fill="#E7BB4C" fill-rule="nonzero" cx="1579.21193" cy="147.102908" rx="48.6934375" ry="146.934598"></ellipse>
                    <path d="M1572.89904,92.5704797 C1572.89904,103.089852 1575.73984,111.610544 1579.21193,111.610544 C1582.68402,111.610544 1585.52482,103.089852 1585.52482,92.5704797 C1585.52482,82.051107 1582.70506,73.6356089 1579.21193,73.6356089 C1575.71879,73.6356089 1572.89904,82.051107 1572.89904,92.5704797 Z" id="Path" fill="#E7BB4C" fill-rule="nonzero"></path>
                    <path d="M1572.89904,201.551181 C1572.89904,212.070554 1575.73984,220.612284 1579.21193,220.612284 C1582.68402,220.612284 1585.52482,212.091592 1585.52482,201.551181 C1585.52482,191.010769 1582.70506,182.511116 1579.21193,182.511116 C1575.71879,182.511116 1572.89904,191.031808 1572.89904,201.551181 Z" id="Path" fill="#E7BB4C" fill-rule="nonzero"></path>
                    <path d="M1312.8079,471.078548 C1312.8079,476.695893 1275.2462,481.240262 1228.88853,481.240262 C1182.53086,481.240262 1144.96916,476.695893 1144.96916,471.078548 C1144.96916,465.461203 1182.61503,460.937873 1228.90957,460.937873 C1275.20411,460.937873 1312.8079,465.482242 1312.8079,471.078548 Z" id="Path" fill="#E7BB4C" fill-rule="nonzero"></path>
                    <path d="M1272.5527,261.25914 L1273.68902,260.24928 C1276.83584,257.577202 1279.69878,254.587928 1282.23246,251.328852 C1283.28461,249.793024 1284.16842,248.152002 1285.34682,246.700328 C1286.4678,245.169707 1288.09178,244.082307 1289.93419,243.628672 C1289.25576,245.544709 1288.09642,247.25439 1286.56731,248.593815 C1290.25698,246.201049 1293.7729,243.550578 1297.0888,240.662208 C1297.42902,240.87347 1297.62981,241.250893 1297.61487,241.65103 C1297.88517,243.580781 1297.78519,245.544354 1297.32027,247.436685 C1296.97574,249.393752 1295.70567,251.06333 1293.91131,251.917937 C1291.49137,253.369611 1288.14554,254.021812 1286.4621,256.357113 C1285.45303,257.438517 1284.57054,258.6314 1283.83173,259.912661 C1282.08516,263.047434 1280.31755,266.224284 1278.57099,269.338018 C1276.59295,272.851489 1271.87932,281.161793 1267.27091,281.961266 C1265.05175,282.659859 1262.66323,281.570259 1261.73661,279.436616 C1260.60029,277.080277 1261.73661,274.702899 1263.06231,272.430714 C1265.72574,268.309584 1268.91619,264.553954 1272.5527,261.25914 Z" id="Path" fill="#EBA76C" fill-rule="nonzero"></path>
                    <path d="M1269.24895,280.509592 C1269.24895,280.698941 1269.10165,280.88829 1269.01748,281.077638 C1268.31393,282.300179 1267.36886,283.366754 1266.2398,284.212411 C1259.98349,289.663703 1253.17822,294.451116 1245.93334,298.49772 C1242.63096,300.349983 1239.22321,302.007853 1235.72749,303.462863 C1233.14677,304.827059 1230.19902,305.335444 1227.31031,304.914537 C1225.40927,304.545778 1223.73894,303.422327 1222.68085,301.800803 C1222.10006,300.236707 1222.45007,298.478904 1223.5857,297.256434 C1224.46088,296.237508 1225.47364,295.345322 1226.59484,294.605552 C1237.11633,286.905371 1248.33223,279.731159 1260.87385,275.460293 C1262.20953,274.916477 1263.64034,274.644677 1265.08244,274.660821 C1266.62766,274.709957 1268.05735,275.491054 1268.9333,276.764696 C1269.60254,277.900087 1269.7187,279.278238 1269.24895,280.509592 L1269.24895,280.509592 Z" id="Path" fill="#EBA76C" fill-rule="nonzero"></path>
                    <path d="M1224.30116,280.825173 C1223.62778,282.297886 1222.63877,283.854753 1221.0395,284.170334 C1219.91982,284.234101 1218.79653,284.163468 1217.69367,283.959946 L1216.64152,283.791637 C1215.51541,283.666069 1214.41532,283.368041 1213.37986,282.908009 C1212.23845,281.764324 1211.28026,280.45151 1210.53906,279.015841 L1210.37071,278.658183 C1210.2655,278.426756 1210.09715,278.132214 1209.92881,277.816633 C1209.36384,276.999294 1208.97015,276.0761 1208.77145,275.102635 C1208.77145,270.137491 1210.87574,268.791011 1212.70648,266.413633 C1214.61853,264.008546 1217.19372,262.216514 1220.11361,261.25914 C1221.71656,260.591681 1223.48184,260.415921 1225.18496,260.75421 C1226.63693,261.174985 1226.44754,262.247961 1226.53172,263.552363 C1227.17973,269.405454 1226.41483,275.328574 1224.30116,280.825173 L1224.30116,280.825173 Z" id="Path" fill="#EBA76C" fill-rule="nonzero"></path>
                    <path d="M1219.88214,292.017786 C1216.15637,295.926447 1210.65335,297.595388 1205.38353,296.414884 C1203.94433,295.944487 1202.46519,295.606464 1200.9645,295.405024 C1202.97638,293.878262 1204.28248,291.60063 1204.5839,289.0934 C1205.13264,286.354232 1205.04626,283.525765 1204.33138,280.825173 C1204.18408,280.278166 1202.96359,277.984943 1203.5107,277.564168 C1204.05782,277.143393 1206.68819,278.36364 1207.46678,278.342601 C1208.32029,278.307861 1209.15787,278.100297 1209.92881,277.732478 L1210.32863,277.564168 L1210.32863,277.564168 C1211.19618,277.12682 1212.08851,276.740453 1213.00108,276.407037 C1213.19249,276.344392 1213.39888,276.344392 1213.59029,276.407037 C1213.74954,276.465047 1213.89347,276.558584 1214.01115,276.680541 L1217.56741,279.899469 C1217.17713,281.073138 1216.88158,282.2762 1216.6836,283.497094 C1216.67353,283.587984 1216.67353,283.679708 1216.6836,283.770598 C1216.50458,284.933004 1216.42013,286.108012 1216.43109,287.284068 C1216.41008,287.620361 1216.41008,287.957636 1216.43109,288.293928 C1216.46961,288.717559 1216.56153,289.134625 1216.70465,289.535214 C1217.2308,290.880857 1218.44895,291.832603 1219.88214,292.017786 L1219.88214,292.017786 Z" id="Path" fill="#EBA76C" fill-rule="nonzero"></path>
                    <path d="M1216.64152,283.791637 C1216.46249,284.954043 1216.37804,286.129051 1216.389,287.305107 C1216.36799,287.641399 1216.36799,287.978675 1216.389,288.314967 C1216.06481,288.075168 1215.76205,287.807672 1215.48415,287.515494 C1214.95808,287.031603 1214.47409,286.547712 1213.96906,286.021744 C1212.58792,284.348736 1211.53811,282.428042 1210.87574,280.362321 C1210.64631,279.810466 1210.46331,279.240445 1210.32863,278.658183 C1210.27618,278.323605 1210.27618,277.982901 1210.32863,277.648323 L1210.32863,277.648323 C1211.51958,279.120105 1212.79112,280.524838 1214.1374,281.856072 C1214.92652,282.496431 1215.77979,283.053418 1216.6836,283.518133 L1216.95716,283.644365 C1217.19705,283.762196 1217.44288,283.867531 1217.69367,283.959946 L1216.64152,283.791637 Z" id="Path" fill="#E17D27" fill-rule="nonzero"></path>
                    <path d="M1212.76961,282.339963 C1213.74892,281.564286 1214.63198,280.674345 1215.39998,279.689081 C1217.16759,277.269625 1217.67262,274.134852 1219.16667,271.526048 C1220.13423,269.830587 1221.48998,268.388582 1223.12275,267.318299 C1224.54973,266.569029 1225.92105,265.718279 1227.22613,264.772611 C1229.01267,263.039732 1229.98336,260.632595 1229.89859,258.145406 C1229.80314,255.681375 1229.20899,253.262276 1228.15202,251.03431 C1227.11429,251.989199 1225.77316,252.547891 1224.36429,252.612216 C1220.55551,253.138185 1216.66256,252.780526 1212.83274,253.138185 C1208.94559,253.262196 1205.2545,254.873899 1202.52168,257.640476 C1199.87027,260.733172 1199.40732,265.109231 1199.3442,269.190747 C1199.24579,271.247036 1199.37992,273.307859 1199.74401,275.334061 C1200.2775,277.970186 1201.43974,280.438548 1203.13193,282.529312 C1205.95169,286.000705 1209.69734,284.90669 1212.76961,282.339963 Z" id="Path" fill="#3C69BA" fill-rule="nonzero"></path>
                    <path d="M1220.09257,270.621382 C1219.80093,270.111951 1219.37031,269.696016 1218.85103,269.422173 C1218.31668,269.143685 1217.66655,269.218685 1217.20968,269.611522 C1216.90529,269.956913 1216.76695,270.417976 1216.8309,270.873847 C1216.88996,271.321308 1217.02519,271.755363 1217.23072,272.15721 C1217.75371,273.665993 1218.50605,275.08522 1219.46128,276.364959 C1219.65066,276.596386 1219.90318,276.806773 1220.15569,276.722618 C1220.31051,276.666356 1220.43831,276.553616 1220.51343,276.407037 C1220.51343,276.028339 1221.01846,275.376138 1221.12367,274.976402 C1221.26737,274.427691 1221.31717,273.858626 1221.27097,273.293303 C1221.27097,273.293303 1221.27097,273.398496 1221.27097,273.398496 C1220.63968,272.704218 1220.49238,271.420854 1220.09257,270.621382 Z" id="Path" fill="#EBA76C" fill-rule="nonzero"></path>
                    <path d="M1197.80806,467.670271 C1197.56571,468.743771 1197.56571,469.857777 1197.80806,470.931277 C1198.71724,473.003159 1200.88939,474.222066 1203.13193,473.918779 C1205.31216,473.564358 1207.37987,472.707184 1209.17126,471.415168 C1212.30409,469.606185 1215.2504,467.492032 1217.96723,465.103544 C1219.00107,464.214882 1219.84552,463.127339 1220.4503,461.905655 C1221.05958,460.672373 1221.05958,459.225731 1220.4503,457.992448 C1219.16398,456.253694 1216.89994,455.547385 1214.85287,456.246232 C1212.87092,456.943905 1210.96114,457.831669 1209.15022,458.897114 C1206.54089,460.096323 1204.94163,461.000989 1202.35334,462.052926 C1199.69799,462.611459 1197.79981,464.957347 1197.80806,467.670271 Z" id="Path" fill="#f0ee8c" fill-rule="nonzero"></path>
                    <path d="M1194.29388,366.158325 C1194.0711,372.980985 1194.62885,379.806752 1195.95628,386.502792 C1196.98037,393.585836 1197.78,400.710958 1198.35518,407.878157 C1198.59003,410.072498 1198.62525,412.283619 1198.46039,414.484323 C1198.08162,418.039871 1196.73487,421.40607 1196.01941,425.003696 C1195.10383,431.007122 1195.10383,437.114629 1196.01941,443.118055 L1197.21885,455.089101 C1197.46309,458.89057 1198.10489,462.656008 1199.13377,466.323792 C1201.33598,467.35603 1203.95374,466.835993 1205.59396,465.040428 C1206.2197,454.544912 1207.91185,444.140276 1210.64427,433.98724 C1211.50703,430.810389 1212.45397,427.675616 1213.00108,424.414611 C1213.52372,420.738988 1213.84686,417.03776 1213.96906,413.327192 C1214.91599,399.168116 1218.17766,385.072157 1216.78882,370.93412 C1216.1979,365.48208 1215.27024,360.071805 1214.01115,354.734286 C1213.95509,354.240205 1213.75783,353.772735 1213.44299,353.387806 C1213.00788,353.030962 1212.46904,352.824325 1211.90685,352.798721 L1203.19506,351.47328 C1201.44849,351.199777 1199.13377,350.358227 1197.72389,351.851978 C1196.31401,353.345729 1196.06149,356.585696 1195.61959,358.458144 C1194.98394,360.98774 1194.54077,363.561824 1194.29388,366.158325 L1194.29388,366.158325 Z" id="Path" fill="#F2A71D" fill-rule="nonzero"></path>
                    <path d="M1226.67902,473.434887 C1226.44066,474.572661 1226.44066,475.747468 1226.67902,476.885242 C1227.57046,479.161222 1229.86397,480.569689 1232.29749,480.335596 C1234.6611,480.065425 1236.93369,479.267303 1238.94707,478.000295 C1242.20873,476.275118 1245.49143,474.528902 1248.60579,472.509183 C1250.51237,471.482236 1252.08847,469.935636 1253.15107,468.048969 C1254.19325,466.074854 1253.63921,463.635796 1251.84641,462.305391 C1249.74211,461.127221 1247.32217,462.305391 1245.1337,463.16798 C1242.7535,463.999599 1240.30235,464.612264 1237.81075,464.998351 C1235.30663,465.482242 1230.99283,465.440164 1228.80436,466.702489 C1226.61589,467.964814 1227.03675,471.331013 1226.67902,473.434887 Z" id="Path" fill="#f0ee8c" fill-rule="nonzero"></path>
                    <path d="M1211.21243,378.760533 C1212.64335,380.864408 1214.36888,382.84205 1215.71563,385.072157 C1217.44389,388.140109 1218.80021,391.403095 1219.75588,394.792057 C1222.72294,403.96495 1225.73208,413.285114 1225.90043,422.92086 C1226.00564,429.674297 1224.70098,436.364618 1224.53263,443.118055 C1224.49818,447.607984 1224.71596,452.096304 1225.18496,456.561814 C1225.56374,461.14826 1225.95654,465.734707 1226.36337,470.321153 C1230.12224,470.67315 1233.89976,469.88113 1237.2005,468.048969 C1236.75493,456.677121 1237.60919,445.291587 1239.7467,434.113472 C1240.69364,428.706515 1241.851,423.320596 1242.2929,417.850522 C1242.82212,407.779742 1242.28606,397.681241 1240.69364,387.723039 C1239.1575,375.310179 1237.60032,362.792125 1233.26547,351.052506 C1233.56007,351.851978 1212.43292,353.892736 1210.60219,354.082085 C1203.86843,354.755325 1205.69917,362.87628 1206.70924,367.757269 C1207.4995,371.677141 1209.02767,375.411143 1211.21243,378.760533 L1211.21243,378.760533 Z" id="Path" fill="#F2A71D" fill-rule="nonzero"></path>
                    <path d="M1206.39359,407.394266 C1207.14757,409.641987 1207.73831,411.941183 1208.1612,414.273935 C1208.45575,416.994012 1208.45575,419.737931 1208.1612,422.458007 C1207.88764,425.550703 1207.61408,428.643399 1207.36157,431.736094 C1206.66715,439.730817 1206.0569,447.746579 1204.77328,455.657148 C1204.24721,458.833998 1205.34144,461.400725 1205.67813,464.977312 C1208.40089,455.147442 1210.53701,445.164495 1212.07519,435.081255 C1213.98973,423.352264 1215.12852,411.509806 1215.48415,399.630969 C1215.67354,396.201653 1215.86293,392.772338 1216.03127,389.343022 C1216.29566,387.614455 1216.05451,385.846325 1215.33685,384.251646 C1214.31709,382.838283 1212.96586,381.696836 1211.40182,380.927524 C1207.61408,378.550146 1205.08893,375.141869 1201.84831,372.364755 C1200.64886,373.942661 1201.74309,378.066255 1201.84831,379.959742 C1202.10082,383.052437 1202.37438,386.145133 1202.75316,389.237828 C1203.45968,395.380633 1204.67738,401.453827 1206.39359,407.394266 Z" id="Path" fill="#D86F13" fill-rule="nonzero"></path>
                    <path d="M1234.44387,330.203109 C1234.74111,328.11077 1234.92376,326.003754 1234.99099,323.891485 C1234.7765,320.052014 1234.01841,316.262365 1232.73939,312.635756 L1228.25724,297.908635 C1227.7393,296.080729 1227.03414,294.311121 1226.15294,292.62791 C1223.7366,293.03377 1221.25911,292.875357 1218.91416,292.165057 L1219.25085,292.396483 C1215.97919,295.139553 1211.79503,296.551518 1207.52991,296.351768 L1207.52991,296.351768 C1207.06697,296.120341 1206.28838,296.204496 1205.69917,295.930993 C1205.17255,295.699364 1204.66582,295.42494 1204.18408,295.110482 C1203.46862,294.668668 1202.60586,293.658808 1202.98463,292.733103 C1201.85705,293.637586 1200.45313,294.127745 1199.00751,294.121661 C1197.75003,294.064478 1196.50626,294.402949 1195.45125,295.089443 C1193.89002,296.56505 1192.8865,298.534522 1192.61044,300.66471 C1192.61044,300.66471 1192.61044,300.854059 1192.61044,300.959253 C1192.18899,302.788166 1192.12468,304.681233 1192.42106,306.53452 C1192.71197,310.439591 1193.31003,314.315691 1194.20971,318.126869 C1194.79891,320.504247 1195.5775,322.839548 1196.01941,325.259004 C1197.80806,334.978904 1193.80989,345.098541 1195.68272,354.818441 C1196.86112,354.713247 1197.78702,355.638952 1198.77603,356.375308 C1202.08743,358.716862 1206.06322,359.933698 1210.1182,359.846701 C1214.1374,359.951895 1218.13557,359.341771 1222.15478,359.236577 C1226.74214,359.131384 1231.85559,359.489042 1235.32768,356.480502 C1234.015,347.785261 1233.71841,338.966872 1234.44387,330.203109 L1234.44387,330.203109 Z" id="Path" fill="#E7BB4C" fill-rule="nonzero"></path>
                    <path d="M1225.64791,295.888915 C1224.26229,295.2737 1222.63515,295.777024 1221.83913,297.067085 C1221.12305,298.349862 1220.78045,299.807445 1220.85011,301.274834 C1220.68177,310.06903 1223.2911,318.673876 1224.00656,327.425994 C1224.229,329.27867 1224.14368,331.155363 1223.75404,332.980223 C1223.31214,334.726439 1222.38625,336.304345 1221.81809,338.008483 C1220.85102,341.438741 1220.77137,345.058396 1221.58662,348.527856 C1222.38049,351.965531 1222.99855,355.441435 1223.4384,358.942035 C1227.79735,358.712957 1232.09661,357.826323 1236.19044,356.312192 C1236.45781,356.257066 1236.6924,356.098181 1236.84277,355.870378 C1236.9375,355.605074 1236.9375,355.315172 1236.84277,355.049867 C1235.37811,346.71761 1235.03136,338.227281 1235.81167,329.803373 C1236.01864,327.670972 1236.06788,325.526204 1235.95897,323.386555 C1235.76931,321.428282 1235.43166,319.487171 1234.9489,317.579862 C1233.9178,312.930299 1232.84461,308.070349 1229.60399,304.493762 C1228.34421,303.280092 1227.16339,301.987074 1226.06877,300.622633 C1224.98426,299.214989 1224.75052,297.329315 1225.45852,295.699566 L1226.65797,297.48786" id="Path" fill="#E7BB4C" fill-rule="nonzero"></path>
                    <path d="M1220.34508,296.772542 C1221.35608,295.42177 1222.51347,294.186996 1223.79613,293.090762 L1226.7211,290.355725 C1227.60491,289.535214 1228.48871,288.714703 1229.45669,287.978347 C1230.39428,287.226487 1231.37061,286.524234 1232.38166,285.874472 L1237.4951,282.550351 C1242.89997,287.626973 1246.46726,294.353143 1247.63782,301.67457 C1244.84559,303.283729 1241.94117,304.689942 1238.94707,305.882319 C1236.04649,307.142137 1232.94938,307.889564 1229.79338,308.091387 C1226.49873,308.131059 1223.26731,307.186004 1220.51343,305.377389 C1217.65158,303.462863 1218.68269,299.128882 1220.34508,296.772542 Z" id="Path" fill="#E7BB4C" fill-rule="nonzero"></path>
                    <path d="" id="Path" fill="#E7BB4C" fill-rule="nonzero"></path>
                    <path d="M1759.44498,483.975299 C1759.44498,489.592644 1721.88328,494.137013 1675.54665,494.137013 C1629.21003,494.137013 1591.62728,489.592644 1591.62728,483.975299 C1591.62728,478.357954 1629.18899,473.834624 1675.54665,473.834624 C1721.90432,473.834624 1759.44498,478.378993 1759.44498,483.975299 Z" id="Path" fill="#E7BB4C" fill-rule="nonzero"></path>
                    <path d="M1653.97761,316.464808 C1654.89297,316.797215 1655.86802,316.933409 1656.83945,316.864544 C1658.7437,316.883588 1660.64358,316.678809 1662.50001,316.254421 C1665.43281,315.244189 1668.20946,313.827819 1670.74886,312.046672 C1671.56953,311.56278 1672.32708,310.994734 1673.14776,310.531882 C1673.63052,310.35414 1674.08435,310.106004 1674.49451,309.795526 C1673.80009,309.479945 1672.93733,309.795526 1672.17978,309.353712 C1670.14875,308.201614 1668.67472,306.272088 1668.09744,304.009871 C1667.84493,303.18936 1667.59241,302.326771 1667.36094,301.443144 C1667.12947,300.559517 1667.08738,300.264974 1666.98216,299.675889 C1666.91394,299.357246 1666.87171,299.033587 1666.85591,298.708107 C1666.74529,297.656563 1666.83092,296.593626 1667.10842,295.573334 L1667.40302,295.173598 C1667.00321,295.173598 1666.60339,294.689707 1666.20357,294.668668 C1665.80376,294.647629 1664.96204,295.426063 1664.54118,295.783721 C1663.53195,296.817291 1662.29136,297.596108 1660.92179,298.055906 C1658.99228,298.732931 1656.94063,298.991128 1654.9035,298.813301 C1655.54699,299.960905 1655.94807,301.228338 1656.0819,302.537159 C1656.07208,302.670223 1656.07208,302.803831 1656.0819,302.936895 C1656.36596,304.129597 1656.5142,305.350588 1656.52381,306.576598 L1656.52381,306.681792 C1656.47178,307.933256 1656.28123,309.175105 1655.95565,310.384611 C1655.53136,312.48039 1654.86767,314.520497 1653.97761,316.464808 L1653.97761,316.464808 Z" id="Path" fill="#D29026" fill-rule="nonzero"></path>
                    <path d="M1650.1057,283.602288 C1649.65806,284.983659 1649.28575,286.388309 1648.99042,287.810037 C1648.78477,289.984149 1648.96284,292.177479 1649.5165,294.28997 C1650.93793,298.578207 1653.46357,302.416694 1656.83945,305.419467 C1661.70038,309.627216 1666.32983,301.569376 1667.52928,297.508899 C1668.53934,294.058544 1669.40211,289.303788 1667.52928,286.063821 C1666.09949,283.21465 1663.61642,281.033918 1660.60614,279.983624 C1658.25145,279.423495 1655.77412,279.721909 1653.61988,280.825173 C1652.27313,281.498413 1651.15785,283.833714 1650.1057,283.602288 Z" id="Path" fill="#EBA76C" fill-rule="nonzero"></path>
                    <path d="M1665.80376,289.514175 C1662.64731,285.306426 1657.95473,286.863293 1656.10295,286.610828 C1652.69702,286.11004 1650.10738,283.292718 1649.89527,279.857391 C1649.56078,277.939794 1649.59649,275.975909 1650.00049,274.071736 C1651.34739,274.702454 1652.82903,274.991497 1654.3143,274.913286 C1655.97349,274.370485 1657.67767,273.97621 1659.40669,273.735116 C1663.03145,273.351702 1666.64124,274.582942 1669.27585,277.101315 C1672.34615,280.811602 1673.9418,285.522676 1673.758,290.334686 C1673.758,291.744282 1669.90714,303.69429 1667.44511,301.969113 C1666.51922,301.33795 1667.00321,296.225535 1666.87695,295.047365 C1666.7663,293.163538 1666.4054,291.302809 1665.80376,289.514175 Z" id="Path" fill="#E7BB4C" fill-rule="nonzero"></path>
                    <path d="M1651.87331,279.394539 C1648.73791,279.163113 1646.78091,283.412939 1646.48631,286.316286 C1646.44665,289.145331 1647.03601,291.947863 1648.21183,294.521397 C1648.70008,295.88301 1649.32029,297.193644 1650.06361,298.434603 C1650.31613,298.834339 1651.62079,301.190679 1652.16791,301.127563 C1653.30423,301.00133 1651.62079,297.82448 1651.41036,297.31955 C1650.71231,295.585907 1650.24536,293.767997 1650.02153,291.912592 C1649.55396,289.200288 1649.87533,286.410788 1650.94742,283.875792 C1651.87331,282.003343 1652.54669,281.203871 1651.87331,279.394539 Z" id="Path" fill="#E7BB4C" fill-rule="nonzero"></path>
                    <path d="M1665.84584,291.491817 C1666.20357,290.502996 1666.22462,289.682485 1667.00321,288.988207 C1667.7818,288.293928 1668.26579,288.251851 1668.83395,288.988207 C1670.01235,290.376764 1668.45517,292.270251 1667.80284,293.469459 C1667.46615,294.121661 1666.91904,294.731784 1666.60339,295.362946 C1666.44312,294.591351 1666.32371,293.811832 1666.24566,293.027646 C1666.16149,292.585832 1666.05627,291.428701 1665.84584,291.491817 Z" id="Path" fill="#EBA76C" fill-rule="nonzero"></path>
                    <path d="M1683.12212,468.36455 C1683.9428,469.963494 1682.99587,472.866841 1683.29047,474.676173 C1683.78327,476.464741 1684.70824,478.104785 1685.98397,479.451969 C1687.60428,481.682076 1692.29686,485.763592 1690.84489,488.877327 C1689.05624,492.769494 1684.27949,491.128472 1681.77537,489.256024 C1679.27126,487.383576 1678.4085,483.996338 1676.40942,481.555843 C1674.95377,479.905223 1674.48861,477.603956 1675.18892,475.517723 C1675.5616,473.130241 1675.75154,470.71781 1675.75708,468.301434 C1677.37611,468.281443 1678.99425,468.386952 1680.59697,468.617015 C1681.33347,468.743247 1683.43777,468.86948 1683.12212,468.36455 Z" id="Path" fill="#f0ee8c" fill-rule="nonzero"></path>
                    <path d="M1661.59516,468.02793 C1661.47946,470.326712 1661.47946,472.629857 1661.59516,474.928638 C1661.95289,476.822125 1663.69946,479.031194 1663.19443,481.135068 C1662.6894,483.238943 1659.95381,483.238943 1658.1862,483.870105 C1656.45833,484.489685 1654.9804,485.657011 1653.97761,487.194227 C1652.60116,488.798867 1650.64234,489.789568 1648.53389,489.947473 C1646.42543,490.105378 1644.34085,489.417492 1642.74066,488.035777 C1641.27019,486.620036 1641.18643,484.293882 1642.55127,482.77609 C1644.10845,481.450649 1646.38109,481.534804 1648.12766,480.545983 C1652.70786,478.143859 1655.35952,473.191763 1654.81933,468.048969 C1657.01137,468.39063 1659.23512,468.482385 1661.44786,468.322472 C1661.40578,468.574937 1661.3216,468.743247 1661.59516,468.02793 Z" id="Path" fill="#f0ee8c" fill-rule="nonzero"></path>
                    <path d="M1678.78727,361.024871 C1680.74427,361.887459 1681.79642,366.936758 1682.59605,368.935439 C1683.85082,372.063977 1684.71313,375.335869 1685.16329,378.676378 C1686.44691,387.912387 1685.16329,397.08528 1684.17427,406.237135 C1683.77446,409.876838 1683.08004,413.495502 1682.80648,417.156244 C1682.65604,421.27762 1683.37294,425.384648 1684.91078,429.211445 C1686.56619,433.933517 1687.19743,438.953769 1686.76256,443.938566 C1686.17335,448.146315 1686.57317,448.546052 1686.13127,452.753801 C1685.68937,456.96155 1685.31059,460.622292 1685.12121,464.514459 C1685.12121,466.00821 1684.88973,467.438845 1684.95286,468.932596 C1685.01599,470.426347 1684.59513,472.004253 1684.59513,473.519042 C1684.59513,473.652958 1684.54192,473.781389 1684.44721,473.876082 C1684.3525,473.970775 1684.22404,474.023972 1684.0901,474.023972 C1680.5577,474.16986 1677.02125,473.858715 1673.56861,473.098268 C1673.44531,473.059133 1673.35534,472.952822 1673.33714,472.824764 C1672.53751,465.903017 1671.23284,459.002308 1669.82297,452.164716 C1667.71867,441.645343 1665.61437,430.915583 1663.61529,420.291017 C1661.67934,410.381768 1659.72234,400.262131 1658.43872,390.205611 C1657.84263,385.460017 1657.54043,380.682129 1657.53387,375.899264 C1657.53387,373.563963 1657.53387,371.27074 1657.68117,368.956478 C1657.68117,367.967657 1657.4497,365.926899 1658.29142,365.316775 C1659.13314,364.706651 1663.04713,365.043271 1664.35179,364.917039 C1666.63777,364.800395 1668.90702,364.462189 1671.12763,363.907179 C1673.9053,363.170823 1676.85132,362.287196 1679.54482,361.38253 C1678.8504,361.445646 1678.13494,361.634994 1678.78727,361.024871 Z" id="Path" fill="#F2A71D" fill-rule="nonzero"></path>
                    <path d="M1665.36186,365.40093 L1665.6775,365.40093 C1665.55124,365.211581 1665.44603,365.23262 1665.36186,365.40093 Z" id="Path" fill="#E7BB4C" fill-rule="nonzero"></path>
                    <path d="M1641.47808,395.465297 C1641.79329,405.80312 1643.20405,416.078384 1645.68668,426.118749 C1647.89619,436.427734 1649.70588,446.673603 1651.19994,457.108821 C1651.74705,461.064105 1651.97853,465.145622 1652.75712,468.995712 C1652.85467,470.002271 1653.08097,470.992159 1653.43049,471.941137 C1654.14595,473.014113 1655.66105,472.614376 1657.11301,472.614376 C1658.44245,472.729012 1659.77715,472.771151 1661.11118,472.740609 C1662.79461,472.530221 1662.94191,471.688672 1663.21547,469.984533 C1664.14136,463.546677 1664.22553,458.581533 1664.54118,453.511196 C1664.95367,449.605386 1665.07325,445.67419 1664.89891,441.750537 L1664.89891,440.972103 C1664.14136,434.386976 1663.17339,427.886004 1662.31062,421.342954 C1661.97798,418.683771 1661.92861,415.996797 1662.16332,413.327192 C1662.3948,410.066186 1662.85774,406.784142 1663.08921,403.523137 C1663.99406,391.278587 1662.66835,378.991959 1665.06725,366.894681 C1665.13879,366.382262 1665.27307,365.880581 1665.46707,365.40093 C1658.96479,365.40093 1649.47441,369.356214 1643.75072,364.790806 C1643.87698,370.008415 1642.34084,374.889404 1642.08833,380.022858 C1641.83581,385.156312 1641.47808,390.247688 1641.47808,395.465297 Z" id="Path" fill="#F2A71D" fill-rule="nonzero"></path>
                    <path d="M1642.48814,365.211581 C1642.65649,359.993972 1643.16152,354.692208 1643.16152,349.558755 C1643.16152,344.425301 1643.16152,339.565351 1643.51925,334.558129 C1643.74019,332.361614 1643.74019,330.148479 1643.51925,327.951963 C1643.17946,325.737528 1642.99663,323.501851 1642.97213,321.261642 C1642.97213,319.157768 1642.80379,314.823786 1644.97122,313.834965 C1646.63361,313.056531 1648.40122,312.383292 1650.04257,311.583819 C1651.99509,310.340761 1654.12306,309.39755 1656.35546,308.785666 C1656.30967,309.141859 1656.30967,309.502449 1656.35546,309.858642 L1656.35546,309.858642 C1656.52381,312.278098 1658.81749,313.224841 1660.94283,313.540423 C1663.69987,314.055875 1666.53258,313.164422 1668.49726,311.163044 C1669.44266,310.298105 1670.12157,309.181412 1670.45425,307.944116 C1671.6686,308.501964 1672.98977,308.789115 1674.32616,308.785666 C1674.99288,309.120859 1675.70019,309.368367 1676.43046,309.522022 C1677.71408,310.005913 1679.03979,310.384611 1680.34445,310.847463 C1681.38194,311.747623 1682.66381,312.318858 1684.02697,312.488485 C1684.91078,312.972376 1685.7525,313.498345 1686.57317,314.045352 C1686.74352,314.554078 1686.87714,315.07437 1686.97299,315.60222 C1687.60428,318.94738 1688.04618,322.082153 1686.13127,324.9855 C1685.28955,326.247825 1680.9547,333.400998 1680.78635,333.884889 C1680.63897,335.234371 1680.63897,336.595885 1680.78635,337.945367 L1680.78635,343.415441 C1681.05604,349.321848 1681.75936,355.200467 1682.89065,361.003832 C1683.22734,363.107707 1683.60611,365.211581 1684.06906,367.315456 L1684.32157,368.40947 C1684.82164,369.892669 1685.0567,371.452288 1685.01599,373.016956 C1684.2572,373.072461 1683.50808,373.220841 1682.78544,373.458769 C1679.92359,374.11097 1677.20905,375.436411 1674.36825,375.836148 C1669.56735,376.453698 1664.73113,376.755901 1659.89068,376.740814 C1654.58785,376.740814 1648.12766,378.108332 1643.47716,374.805249 C1642.44606,374.068893 1642.78275,372.953839 1642.78275,371.670476 C1642.71962,369.629718 1642.40397,367.441688 1642.48814,365.211581 Z" id="Path" fill="#f0ee8c" fill-rule="nonzero"></path>
                    <path d="M1676.49359,321.976959 C1678.19807,323.491749 1681.73329,322.208386 1683.45881,321.345797 C1685.53421,320.089917 1687.3028,318.386374 1688.63538,316.359614 C1693.20769,310.564068 1697.4713,304.531606 1701.40847,298.287332 C1703.32338,295.110482 1705.99583,292.270251 1707.3005,288.861974 C1707.3411,287.525877 1707.14153,286.19334 1706.7113,284.927729 C1706.41669,283.686443 1705.0489,284.212411 1704.03884,284.549031 C1698.39932,286.526673 1694.16968,291.323507 1690.23465,295.720605 C1688.7406,297.403705 1687.56219,299.297192 1686.02605,301.022369 C1683.66182,303.578763 1681.48191,306.299587 1679.50273,309.164363 C1677.98076,311.532844 1676.81781,314.113509 1676.05169,316.822467 C1675.51113,318.225325 1675.41562,319.760547 1675.77813,321.219565 C1676.1569,322.061114 1676.80923,322.418773 1676.49359,321.976959 Z" id="Path" fill="#EBA76C" fill-rule="nonzero"></path>
                    <path d="M1705.93271,290.124299 C1707.1186,288.978068 1707.8635,287.451339 1708.037,285.811356 C1709.13868,280.678654 1709.89094,275.477163 1710.2886,270.242685 C1710.77259,266.034935 1710.2886,261.574721 1711.17241,257.282817 C1712.05621,252.990913 1713.95008,249.372249 1714.41302,245.248655 C1714.84857,242.41421 1714.54413,239.515334 1713.52922,236.833157 C1713.30922,236.36624 1712.87207,236.038684 1712.36208,235.95862 C1711.85209,235.878555 1711.33557,236.056391 1710.98302,236.433421 C1710.64086,236.793283 1710.33757,237.188186 1710.07817,237.61159 C1709.69493,238.780126 1709.3995,239.975647 1709.19437,241.188177 C1708.54203,243.292052 1707.53197,245.395926 1707.09007,247.499801 C1706.85461,246.107096 1706.85461,244.684757 1707.09007,243.292052 C1707.10055,243.092287 1706.96172,242.915536 1706.76512,242.878351 C1706.56853,242.841165 1706.37472,242.954996 1706.31148,243.14478 C1705.64645,245.099608 1705.13978,247.104756 1704.79639,249.140823 C1704.50178,251.244697 1705.57498,253.895579 1705.3435,255.957376 C1704.94369,259.618118 1703.40755,262.269 1702.43957,265.803509 C1700.81926,271.65228 1697.95742,277.921827 1698.48349,284.128256 C1698.60975,285.685124 1698.18889,288.336006 1699.47251,289.493137 C1701.44841,290.579763 1703.78379,290.80793 1705.93271,290.124299 L1705.93271,290.124299 Z" id="Path" fill="#EBA76C" fill-rule="nonzero"></path>
                    <path d="M1640.86784,337.419399 L1640.72054,337.251089 C1640.67845,337.39836 1640.72054,337.461476 1640.86784,337.419399 Z" id="Path" fill="#E7BB4C" fill-rule="nonzero"></path>
                    <path d="M1655.9346,397.211513 C1656.278,402.550053 1657.29617,407.823633 1658.96479,412.906417 C1660.29976,416.815152 1661.05825,420.897431 1661.21639,425.024734 C1661.21639,426.791989 1660.98492,428.496127 1660.98492,430.263382 C1661.01242,432.312966 1661.23081,434.355533 1661.63725,436.364618 C1662.00457,438.230319 1662.55433,440.055429 1663.2786,441.813653 C1663.64719,443.059131 1664.15545,444.258947 1664.7937,445.39024 C1664.7937,444.21207 1664.7937,443.012862 1664.7937,441.792614 L1664.7937,441.014181 C1664.03615,434.429054 1663.06817,427.928081 1662.20541,421.385031 C1661.87277,418.725848 1661.82339,416.038874 1662.05811,413.369269 C1661.55385,411.15095 1661.19535,408.90201 1660.98492,406.636871 C1660.75344,404.364686 1660.26946,402.113541 1660.18528,399.820317 C1660.28404,397.349668 1659.99289,394.878887 1659.32252,392.498834 C1658.6281,390.878851 1656.56589,390.142494 1655.28227,389.132635 C1655.30166,391.837927 1655.51969,394.538145 1655.9346,397.211513 Z" id="Path" fill="#D86F13" fill-rule="nonzero"></path>
                    <path d="M1697.263,304.262336 C1696.50783,303.352805 1695.6848,302.501805 1694.80097,301.716648 L1691.98122,299.086804 C1691.46582,298.58991 1690.88534,298.165259 1690.25569,297.82448 C1689.56127,297.424744 1688.34078,297.193317 1687.89888,296.562155 C1687.41489,296.898775 1686.25753,298.140061 1685.41581,298.834339 C1684.08902,299.821095 1682.83058,300.896531 1681.64912,302.053268 C1680.27435,303.446771 1678.78953,304.727264 1677.20905,305.882319 C1675.33635,307.443824 1673.11209,308.526847 1670.72781,309.038131 C1670.37008,309.774487 1670.0334,310.510843 1669.65462,311.247199 C1669.2842,311.942309 1668.82436,312.585951 1668.28683,313.161725 L1668.28683,313.330035 C1668.25466,314.485667 1668.14923,315.638097 1667.97118,316.780389 C1667.57327,317.901447 1667.50032,319.112112 1667.76075,320.272821 C1668.91555,322.756507 1670.59554,324.960151 1672.68481,326.731716 C1674.86555,329.024109 1676.82428,331.517811 1678.53476,334.179432 C1678.78727,334.558129 1679.01874,334.957865 1679.25022,335.37864 C1679.38029,334.378362 1679.64943,333.401144 1680.04985,332.475293 C1681.3717,329.75283 1683.25832,327.34304 1685.58415,325.406275 C1685.79052,325.261057 1686.01751,325.14759 1686.25753,325.069655 C1687.09925,323.723175 1687.96201,322.397734 1688.82477,321.051255 C1690.31882,318.694915 1691.16054,316.212343 1692.42312,313.813926 C1693.22275,312.23602 1694.31699,310.952657 1695.20079,309.416828 C1695.76124,308.276688 1696.39382,307.173424 1697.09466,306.113745 C1697.7049,305.272196 1697.97846,305.188041 1697.263,304.262336 Z" id="Path" fill="#f0ee8c" fill-rule="nonzero"></path>
                </g>
            </g>
        </g>
    </g>
</svg>